<svg width="318" height="56" viewBox="0 0 318 56" fill="none" xmlns="http://www.w3.org/2000/svg">
<path d="M273.639 40.0223C274.313 40.6468 275.04 41.1672 275.818 41.6356C278.205 43.0929 279.242 43.7174 283.86 43.8215V44.1338C279.242 44.394 278.153 44.342 274.832 42.6245C274.261 42.3643 273.846 42.052 273.431 41.7397C273.172 41.5316 272.912 41.3234 272.653 41.1152C272.601 41.0632 272.497 41.0111 272.445 40.907C272.394 40.855 272.342 40.8029 272.238 40.7509L272.134 40.6988C271.927 40.5427 271.771 40.3345 271.563 40.1784L262.587 31.0706L261.394 32.2156V42.6765C261.394 43.5613 262.069 44.2379 262.951 44.2379V44.342H258.385V44.2379C259.215 44.2379 259.941 43.5613 259.941 42.6765V13.1152C259.941 12.4907 259.578 11.9702 259.111 11.762C259.059 11.762 259.059 11.71 259.007 11.71C258.956 11.71 258.852 11.6579 258.8 11.6579C258.748 11.6579 258.696 11.6059 258.592 11.6059C258.54 11.6059 258.489 11.6059 258.385 11.6059V11.4498H262.951V11.5539C262.12 11.5539 261.394 12.2304 261.394 13.1152V31.7472L281.785 11.4498L281.992 11.6579L281.94 11.71L263.521 30.0297L272.134 38.8252C272.342 39.0334 272.601 39.2936 272.861 39.5018L273.639 40.0223Z" fill="black"/>
<path d="M279.398 29.1449C278.205 29.1449 277.167 30.1858 277.167 31.3828C277.167 30.1858 276.129 29.1449 274.936 29.1449C276.129 29.1449 277.167 28.104 277.167 26.907C277.167 28.104 278.205 29.1449 279.398 29.1449Z" fill="black"/>
<path d="M318 11.658V11.762C317.17 11.762 316.443 12.4386 316.443 13.3234V44.2899H315.302L298.44 13.2193V42.6245C298.44 43.4572 299.114 44.1858 299.996 44.1858V44.2899H295.482V44.1858C296.312 44.1858 297.039 43.5093 297.039 42.6245V11.658H298.18L298.44 12.4386L315.043 43.0409V13.3234C315.043 12.4907 314.368 11.762 313.486 11.762V11.658H318Z" fill="black"/>
<path d="M291.539 11.658V11.762C290.709 11.762 290.034 12.4386 289.983 13.2713V42.6765C289.983 43.5613 290.657 44.1858 291.539 44.1858V44.2899H287.025V44.1858C287.855 44.1858 288.53 43.5093 288.582 42.6765V13.3234C288.582 12.4386 287.907 11.8141 287.025 11.8141V11.71H291.539V11.658Z" fill="black"/>
<path d="M254.442 36.0148C254.442 40.5947 250.758 44.2899 246.192 44.2899H236.282V43.9776H246.192C248.423 43.9776 252.211 42.9367 252.211 35.9628C252.211 28.9888 248.475 27.9479 246.192 27.9479H242.612C242.041 27.9479 241.47 27.8958 240.952 27.7918C240.952 27.7918 240.952 27.7918 240.9 27.7918C237.112 26.959 234.362 23.5761 234.362 19.6728C234.362 15.0929 238.046 11.3977 242.612 11.3977H258.54V11.5018C258.592 11.5018 258.696 11.5018 258.748 11.5018C258.8 11.5018 258.904 11.5018 258.956 11.5538C259.007 11.5538 259.111 11.6059 259.163 11.6059C259.215 11.6059 259.215 11.6579 259.267 11.6579H242.612C240.381 11.6579 236.593 12.6988 236.593 19.6728C236.593 26.6468 240.329 27.6877 242.612 27.6877H246.192C246.763 27.6877 247.333 27.7397 247.852 27.8438C247.852 27.8438 247.852 27.8438 247.904 27.8438C251.692 28.7286 254.442 32.1115 254.442 36.0148Z" fill="black"/>
<path d="M44.5687 28C43.3754 28 42.3377 29.0409 42.3377 30.2379C42.3377 29.0409 41.3 28 40.1066 28C41.3 28 42.3377 26.9591 42.3377 25.7621C42.3377 26.9591 43.3754 28 44.5687 28Z" fill="black"/>
<path d="M170.337 11.71L168.105 11.658L155.446 44.342H157.677L162.243 32.6319H178.067L182.529 44.2899V44.342H182.841L170.337 11.71ZM177.912 32.3197H162.346L170.181 12.1264L177.912 32.3197Z" fill="black"/>
<path d="M150.724 13.3235V42.6766C150.724 43.5614 151.399 44.1859 152.281 44.1859V44.29H147.767V44.1859C148.597 44.1859 149.272 43.5093 149.323 42.6766V13.3235C149.323 12.4387 148.649 11.8142 147.767 11.8142V11.7101H152.281V11.8142C151.451 11.7621 150.724 12.4387 150.724 13.3235Z" fill="black"/>
<path d="M127.584 11.658H119.283V11.762C120.113 11.762 120.839 12.4386 120.839 13.3234V42.6765C120.839 43.5093 120.165 44.2379 119.283 44.2379V44.342H127.584C136.56 44.342 143.876 37.0037 143.876 28C143.876 18.9962 136.56 11.658 127.584 11.658ZM143.565 28C143.565 36.8475 136.404 44.0297 127.584 44.0297H122.448V11.9702H127.584C136.353 11.9702 143.565 19.1524 143.565 28Z" fill="black"/>
<path d="M115.391 11.658V11.762C114.613 11.762 113.938 12.3866 113.886 13.1673V33.4646C113.886 36.3271 112.745 39.0855 110.721 41.1672C108.802 43.0409 104.236 44.342 101.123 44.342C95.1561 44.342 90.279 39.4498 90.279 33.4646V11.658H90.5903V33.4646C90.5903 39.2936 95.3118 44.0297 101.123 44.0297C106.934 44.0297 111.655 39.2936 111.655 33.4646V13.3234C111.655 12.4907 110.981 11.762 110.099 11.762V11.658H115.391Z" fill="black"/>
<path d="M54.3748 32.2157C55.5681 36.6915 58.6293 40.5948 63.0913 42.7287C65.3224 43.7696 67.6572 44.3421 70.0439 44.3421C71.9117 44.3421 73.7277 44.0298 75.4917 43.4053C79.5906 41.948 82.8593 38.9815 84.7272 35.0261C86.595 31.0707 86.8026 26.6469 85.4017 22.5354C83.9489 18.4238 80.9915 15.093 77.0483 13.2194C68.9543 9.36807 59.2 12.803 55.3606 20.922C53.7003 24.409 53.3889 28.2603 54.271 31.7473L54.3748 32.2157ZM82.5999 33.9852C80.6802 37.9926 77.8265 41.0632 74.4541 42.6246C70.874 44.29 66.9827 44.238 63.1951 42.4685C59.4075 40.6469 56.9171 37.6803 55.9832 33.829C55.1011 30.238 55.6719 26.0223 57.5397 22.0149C59.4594 18.0075 62.3131 14.9368 65.6856 13.3755C67.3978 12.5428 69.2137 12.1785 71.0297 12.1785C73.0013 12.1785 74.9729 12.6469 76.9445 13.5837C80.7321 15.4052 83.2225 18.3718 84.1564 22.2231C85.0904 25.8142 84.5196 29.9777 82.5999 33.9852Z" fill="black"/>
<path d="M54.4785 31.7993V31.8514C54.4785 31.9034 54.4785 31.9554 54.4785 31.9554C54.4785 32.0075 54.4785 32.0595 54.4266 32.0595C54.4266 32.1116 54.4266 32.1636 54.3747 32.1636C53.2333 37.0558 48.6674 42.2603 44.2054 43.6655C43.5827 43.8216 43.1158 43.9777 42.5969 44.0298C42.2856 44.0818 41.9224 44.1339 41.6111 44.1859C41.5074 44.1859 41.4555 44.1859 41.3517 44.1859C41.2479 44.1859 41.1442 44.1859 41.0923 44.1859C40.781 44.1859 37.7717 44.238 37.5641 44.238H31.7012V13.3235C31.7012 12.4387 31.0267 11.8142 30.1447 11.8142V11.7101H34.6586V11.8142C33.8285 11.8142 33.1021 12.4908 33.1021 13.3235V42.8848H37.5641C38.4981 42.8848 40.314 42.8848 40.4178 42.8848C40.6253 42.8848 40.8329 42.8848 41.0404 42.8848C41.0404 42.8848 41.0923 42.8848 41.1442 42.8848C41.1961 42.8848 41.1961 42.8848 41.2479 42.8848C41.7149 42.8848 42.1819 42.8328 42.5969 42.7807C43.1158 42.6766 43.6865 42.5725 44.1535 42.4164C48.5637 41.2194 53.1814 36.3792 54.2191 31.9554V31.9034H54.4785V31.7993Z" fill="black"/>
<path d="M26.9799 33.829V33.8811C26.2535 36.7956 24.5932 39.4498 22.2066 41.3234C19.768 43.2491 16.8106 44.29 13.6975 44.29C6.12237 44.342 0 38.1487 0 30.5502V25.1896C0 17.6431 6.12237 11.4498 13.6975 11.4498C19.4048 11.4498 24.5932 15.093 26.513 20.4535L26.5649 20.5576H24.3338V20.5056C22.1028 14.5205 18.7303 11.7621 13.7494 11.7621C10.2731 11.7621 7.31571 13.1153 5.24033 15.6654C3.32061 18.0595 2.28292 21.4424 2.28292 25.1896V30.5502C2.28292 34.2974 3.32061 37.6803 5.24033 40.0744C7.31571 42.6246 10.2212 43.9777 13.7494 43.9777C20.7538 44.0298 23.6074 38.513 24.7489 33.8811V33.829H26.9799Z" fill="black"/>
<path d="M199.859 30.9144C199.859 31.0705 199.755 31.1226 199.652 31.1226C199.548 31.1226 199.444 31.0185 199.444 30.9144C199.444 30.8103 199.548 30.7062 199.652 30.7062C199.755 30.6542 199.859 30.7583 199.859 30.9144Z" fill="black"/>
<path d="M206.552 16.8625C206.552 16.9666 206.448 17.0707 206.345 17.0707C206.241 17.0707 206.137 16.9666 206.137 16.8625C206.137 16.7584 206.241 16.6543 206.345 16.6543C206.448 16.6543 206.552 16.7584 206.552 16.8625Z" fill="black"/>
<path d="M221.91 24.9814C221.91 25.0855 221.806 25.1896 221.703 25.1896C221.547 25.1896 221.495 25.0855 221.495 24.9814C221.495 24.8773 221.599 24.7732 221.703 24.7732C221.806 24.7212 221.91 24.8773 221.91 24.9814Z" fill="black"/>
<path d="M213.816 38.9814C213.816 39.0855 213.712 39.1896 213.608 39.1896C213.505 39.1896 213.401 39.0855 213.401 38.9814C213.401 38.8773 213.505 38.7733 213.608 38.7733C213.712 38.7733 213.816 38.8773 213.816 38.9814Z" fill="black"/>
<path d="M199.911 24.7212C199.911 24.8253 199.807 24.9294 199.703 24.9294C199.6 24.9294 199.496 24.8253 199.496 24.7212C199.496 24.6171 199.6 24.513 199.703 24.513C199.807 24.461 199.911 24.5651 199.911 24.7212Z" fill="black"/>
<path d="M212.726 16.9665C212.726 17.0706 212.623 17.1747 212.519 17.1747C212.415 17.1747 212.311 17.0706 212.311 16.9665C212.311 16.8624 212.415 16.7584 212.519 16.7584C212.623 16.7584 212.726 16.8104 212.726 16.9665Z" fill="black"/>
<path d="M221.806 31.1747C221.806 31.3309 221.703 31.3829 221.599 31.3829C221.495 31.3829 221.391 31.2788 221.391 31.1747C221.391 31.0706 221.495 30.9666 221.599 30.9666C221.703 30.9666 221.806 31.0706 221.806 31.1747Z" fill="black"/>
<path d="M207.642 38.9294C207.642 39.0335 207.538 39.1376 207.434 39.1376C207.331 39.1376 207.227 39.0335 207.227 38.9294C207.227 38.8253 207.331 38.7212 207.434 38.7212C207.538 38.6692 207.642 38.7733 207.642 38.9294Z" fill="black"/>
<path d="M203.076 36.0149C203.076 36.2751 202.868 36.5353 202.609 36.5353C202.35 36.5353 202.09 36.3271 202.09 36.0149C202.09 35.7546 202.298 35.4944 202.609 35.4944C202.868 35.5465 203.076 35.7546 203.076 36.0149Z" fill="black"/>
<path d="M197.887 41.1673C198.145 41.1673 198.354 40.9576 198.354 40.6989C198.354 40.4402 198.145 40.2305 197.887 40.2305C197.63 40.2305 197.42 40.4402 197.42 40.6989C197.42 40.9576 197.63 41.1673 197.887 41.1673Z" fill="black"/>
<path d="M201.623 19.829C201.623 20.0893 201.416 20.2454 201.208 20.2454C201.001 20.2454 200.793 20.0372 200.793 19.829C200.793 19.6209 201.001 19.4127 201.208 19.4127C201.467 19.4127 201.623 19.6209 201.623 19.829Z" fill="black"/>
<path d="M196.539 15.6134C196.797 15.6134 197.006 15.4037 197.006 15.145C197.006 14.8863 196.797 14.6766 196.539 14.6766C196.281 14.6766 196.072 14.8863 196.072 15.145C196.072 15.4037 196.281 15.6134 196.539 15.6134Z" fill="black"/>
<path d="M217.863 19.8291C217.863 20.0893 217.656 20.3495 217.344 20.3495C217.085 20.3495 216.826 20.1413 216.826 19.8291C216.826 19.5688 217.033 19.3086 217.344 19.3086C217.604 19.3607 217.863 19.5688 217.863 19.8291Z" fill="black"/>
<path d="M222.014 15.6134C222.272 15.6134 222.481 15.4037 222.481 15.145C222.481 14.8863 222.272 14.6766 222.014 14.6766C221.756 14.6766 221.547 14.8863 221.547 15.145C221.547 15.4037 221.756 15.6134 222.014 15.6134Z" fill="black"/>
<path d="M219.16 36.0148C219.16 36.275 218.952 36.4311 218.745 36.4311C218.537 36.4311 218.33 36.223 218.33 36.0148C218.33 35.8066 218.537 35.5984 218.745 35.5984C218.952 35.5984 219.16 35.8066 219.16 36.0148Z" fill="black"/>
<path d="M223.363 41.1673C223.62 41.1673 223.829 40.9576 223.829 40.6989C223.829 40.4402 223.62 40.2305 223.363 40.2305C223.105 40.2305 222.896 40.4402 222.896 40.6989C222.896 40.9576 223.105 41.1673 223.363 41.1673Z" fill="black"/>
<path d="M227.876 28L214.023 28.2082C213.038 28.2082 212.155 28.4684 211.481 28.9368C211.17 29.145 210.858 29.4052 210.599 29.7175C209.924 30.4981 209.509 31.5911 209.509 32.8401L209.302 56L209.094 32.7881C209.094 31.7993 208.835 30.9145 208.368 30.2379C208.16 29.9257 207.901 29.6134 207.59 29.3532C206.811 28.6766 205.722 28.2602 204.477 28.2602L190.727 28.052L204.477 27.8439C205.67 27.8439 206.759 27.4275 207.538 26.7509C207.849 26.4907 208.108 26.1784 208.316 25.8662C208.783 25.1896 209.042 24.3048 209.042 23.2639L209.302 0L209.509 23.2119C209.509 24.2528 209.769 25.1375 210.236 25.8141C210.599 26.2825 210.962 26.7509 211.481 27.0632C212.155 27.5316 213.038 27.7918 214.023 27.7918L227.876 28Z" fill="black"/>
<path d="M197.42 14.2602C196.953 14.7286 196.953 15.5613 197.42 16.0297C196.953 15.5613 196.123 15.5613 195.656 16.0297C196.123 15.5613 196.123 14.7286 195.656 14.2602C196.123 14.7806 196.953 14.7806 197.42 14.2602Z" fill="black"/>
<path d="M222.896 14.2602C222.429 14.7286 222.429 15.5613 222.896 16.0297C222.429 15.5613 221.599 15.5613 221.132 16.0297C221.599 15.5613 221.599 14.7286 221.132 14.2602C221.599 14.7806 222.429 14.7806 222.896 14.2602Z" fill="black"/>
<path d="M224.297 39.8141C223.83 40.2825 223.83 41.1152 224.297 41.5836C223.83 41.1152 223 41.1152 222.533 41.5836C223 41.1152 223 40.2825 222.533 39.8141C223 40.3346 223.778 40.3346 224.297 39.8141Z" fill="black"/>
<path d="M197.005 39.8141C197.472 40.2825 198.303 40.2825 198.77 39.8141C198.303 40.2825 198.303 41.1152 198.77 41.5836C198.303 41.1152 197.472 41.1152 197.005 41.5836C197.524 41.1152 197.524 40.3346 197.005 39.8141Z" fill="black"/>
</svg>
